<mxfile host="app.diagrams.net" modified="2024-05-26T04:05:09.552Z" agent="Mozilla/5.0 (Macintosh; Intel Mac OS X 10_15_7) AppleWebKit/605.1.15 (KHTML, like Gecko) Version/17.4.1 Safari/605.1.15" version="24.4.8" etag="VytzX2KxeYS3BMz6ec-N" type="github">
  <diagram name="Page-1" id="W0ebIkmnYohVt28adHTI">
    <mxGraphModel>
      <root>
        <mxCell id="0" />
        <mxCell id="1" parent="0" />
        <mxCell id="2" value="Start" style="ellipse;aspect=fixed;strokeWidth=2;whiteSpace=wrap;" vertex="1" parent="1">
          <mxGeometry x="123" width="50" height="50" as="geometry" />
        </mxCell>
        <mxCell id="3" value="Process" style="rounded=1;absoluteArcSize=1;arcSize=14;whiteSpace=wrap;strokeWidth=2;" vertex="1" parent="1">
          <mxGeometry x="114" y="119" width="68" height="34" as="geometry" />
        </mxCell>
        <mxCell id="4" value="Correct?" style="rhombus;strokeWidth=2;whiteSpace=wrap;" vertex="1" parent="1">
          <mxGeometry x="46" y="221" width="108" height="108" as="geometry" />
        </mxCell>
        <mxCell id="5" value="Next session" style="whiteSpace=wrap;strokeWidth=2;" vertex="1" parent="1">
          <mxGeometry x="111" y="397" width="103" height="34" as="geometry" />
        </mxCell>
        <mxCell id="6" value="Show card" style="curved=1;startArrow=none;endArrow=block;exitX=0.4984375;exitY=1.0003125;entryX=0.49885110294117646;entryY=-0.011488970588235295;" edge="1" parent="1" source="2" target="3">
          <mxGeometry relative="1" as="geometry">
            <Array as="points" />
          </mxGeometry>
        </mxCell>
        <mxCell id="7" value="Remember card" style="curved=1;startArrow=none;endArrow=block;exitX=0.058004896339269654;exitY=0.9765625;entryX=0.25422781675044714;entryY=-0.001880787037037037;" edge="1" parent="1" source="3" target="4">
          <mxGeometry relative="1" as="geometry">
            <Array as="points">
              <mxPoint x="57" y="187" />
            </Array>
          </mxGeometry>
        </mxCell>
        <mxCell id="8" value="Yes" style="curved=1;startArrow=none;endArrow=block;exitX=0.4981553819444444;exitY=0.9986979166666666;entryX=0.30067141897508975;entryY=0.01332720588235294;" edge="1" parent="1" source="4" target="5">
          <mxGeometry relative="1" as="geometry">
            <Array as="points">
              <mxPoint x="100" y="363" />
            </Array>
          </mxGeometry>
        </mxCell>
        <mxCell id="9" value="No" style="curved=1;startArrow=none;endArrow=block;exitX=0.7707126314342271;exitY=-0.001880787037037037;entryX=0.49885110294117646;entryY=0.9765625;" edge="1" parent="1" source="4" target="3">
          <mxGeometry relative="1" as="geometry">
            <Array as="points">
              <mxPoint x="148" y="187" />
            </Array>
          </mxGeometry>
        </mxCell>
        <mxCell id="10" value="Show card" style="curved=1;startArrow=none;endArrow=block;exitX=0.7016799159763666;exitY=0.01332720588235294;entryX=0.8736194789699137;entryY=0.9765625;" edge="1" parent="1" source="5" target="3">
          <mxGeometry relative="1" as="geometry">
            <Array as="points">
              <mxPoint x="225" y="363" />
              <mxPoint x="225" y="187" />
            </Array>
          </mxGeometry>
        </mxCell>
      </root>
    </mxGraphModel>
  </diagram>
</mxfile>
